<svg width="8" height="9" viewBox="0 0 8 9" fill="none" xmlns="http://www.w3.org/2000/svg">
<g clip-path="url(#clip0_194_2)">
<path d="M1.5 0C1.89782 0 2.27936 0.158035 2.56066 0.43934C2.84196 0.720644 3 1.10218 3 1.5V7.5C3 7.89782 2.84196 8.27936 2.56066 8.56066C2.27936 8.84196 1.89782 9 1.5 9C1.10218 9 0.720644 8.84196 0.43934 8.56066C0.158035 8.27936 8.38353e-09 7.89782 0 7.5V1.5C0 1.10218 0.158035 0.720644 0.43934 0.43934C0.720644 0.158035 1.10218 0 1.5 0ZM6.5 0C6.89782 0 7.27936 0.158035 7.56066 0.43934C7.84196 0.720644 8 1.10218 8 1.5V7.5C8 7.89782 7.84196 8.27936 7.56066 8.56066C7.27936 8.84196 6.89782 9 6.5 9C6.10218 9 5.72064 8.84196 5.43934 8.56066C5.15804 8.27936 5 7.89782 5 7.5V1.5C5 1.10218 5.15804 0.720644 5.43934 0.43934C5.72064 0.158035 6.10218 0 6.5 0Z" fill="#BDBDC2"/>
</g>
<defs>
<clipPath id="clip0_194_2">
<rect width="8" height="9" fill="white"/>
</clipPath>
</defs>
</svg>
